<svg xmlns="http://www.w3.org/2000/svg" width="20" height="25" viewBox="0 0 20 25" fill="none"><path d="M19.4492 3.33237C19.4492 3.32719 19.4492 3.32245 19.4492 3.31728C19.429 3.25117 19.3914 3.19196 19.3404 3.14616C19.3166 3.12186 19.29 3.10041 19.2613 3.08236C19.2451 3.07261 19.2282 3.06399 19.2109 3.0565C19.1989 3.0495 19.1864 3.04314 19.1737 3.03753L9.8632 0.0202455C9.77977 -0.00674849 9.69016 -0.00674849 9.60674 0.0202455L0.296243 3.03753C0.120243 3.09389 0.000370304 3.25995 0 3.44789V13.7929C0.000158702 13.981 0.120084 14.1472 0.296243 14.2037L9.60674 17.221C9.69016 17.2479 9.77977 17.2479 9.8632 17.221L11.556 16.6727C11.7789 16.6005 11.9021 16.3581 11.8313 16.1311C11.7605 15.9041 11.5224 15.7785 11.2996 15.8507L10.1569 16.2205V14.655C10.1569 14.4169 9.96741 14.2239 9.7337 14.2239C9.49998 14.2239 9.31049 14.4169 9.31049 14.655V16.2205L0.846409 13.4778V3.76298L3.66791 2.84874L11.5818 5.41387L9.7337 6.01258L2.66619 3.72289C2.44342 3.65075 2.20548 3.77618 2.13464 4.00307C2.06381 4.22996 2.18696 4.47231 2.40972 4.54446L9.31049 6.78027V12.9308C9.31049 13.1688 9.49998 13.3618 9.7337 13.3618C9.96741 13.3618 10.1569 13.1688 10.1569 12.9308V6.78027L12.5552 6.00439V8.86392C12.5552 9.10196 12.7447 9.29496 12.9784 9.29496C13.0215 9.29469 13.0643 9.28785 13.1054 9.2747L14.0927 8.95401C14.3155 8.88186 14.4386 8.63951 14.3678 8.41262C14.297 8.18573 14.059 8.0603 13.8362 8.13244L13.4003 8.27383V5.73068L15.5866 5.02205V7.56519L15.1059 7.7208C14.8831 7.79295 14.7599 8.0353 14.8308 8.26219C14.8865 8.44069 15.049 8.56208 15.2328 8.56262C15.2759 8.56268 15.3188 8.55583 15.3598 8.54237L16.1359 8.29107C16.3121 8.23466 16.432 8.06838 16.4322 7.88028V4.74618L18.621 4.03755V13.4774L18.0708 13.6562C17.8459 13.7211 17.7152 13.9593 17.7789 14.1884C17.8426 14.4175 18.0765 14.5506 18.3014 14.4857C18.3092 14.4835 18.3171 14.481 18.3248 14.4782L19.1712 14.2037C19.3474 14.1472 19.4673 13.981 19.4674 13.7929V3.44789C19.4666 3.40872 19.4604 3.36987 19.4492 3.33237ZM12.978 4.96127L5.06406 2.39658L6.70102 1.86596L14.6149 4.43066L12.978 4.96127ZM16.0107 3.9785L8.09717 1.41337L9.7337 0.88319L17.6476 3.44789L16.0107 3.9785Z" fill="#222222"></path><path d="M2.11608 10.7754C1.88236 10.7754 1.69287 10.9684 1.69287 11.2064V12.4996C1.69287 12.7376 1.88236 12.9306 2.11608 12.9306C2.34979 12.9306 2.53928 12.7376 2.53928 12.4996V11.2064C2.53928 10.9684 2.34979 10.7754 2.11608 10.7754Z" fill="#222222"></path><path d="M3.80886 11.2065C3.57514 11.2065 3.38565 11.3995 3.38565 11.6376V12.9307C3.38565 13.1688 3.57514 13.3618 3.80886 13.3618C4.04257 13.3618 4.23206 13.1688 4.23206 12.9307V11.6376C4.23206 11.3995 4.04257 11.2065 3.80886 11.2065Z" fill="#222222"></path><path d="M16.505 12.0688C16.2713 12.0688 16.0818 12.2618 16.0818 12.4999V18.5345C16.0794 20.676 14.3755 22.4115 12.2729 22.4138H7.19448C6.96077 22.4138 6.77128 22.6068 6.77128 22.8449V23.741L3.70051 21.5518L6.77128 19.3625V20.2586C6.77128 20.4967 6.96077 20.6897 7.19448 20.6897H11.0033C12.4051 20.6883 13.5412 19.5312 13.5425 18.1034V16.3793C13.5425 16.1412 13.3531 15.9482 13.1193 15.9482C12.8856 15.9482 12.6961 16.1412 12.6961 16.3793V18.1034C12.6961 19.0557 11.9382 19.8276 11.0033 19.8276H7.61769V18.5345C7.61758 18.2964 7.42798 18.1035 7.19427 18.1036C7.10762 18.1037 7.02303 18.1309 6.95199 18.1814L2.71994 21.1987C2.5285 21.3353 2.48205 21.6041 2.61615 21.7991C2.64445 21.8402 2.67958 21.876 2.71994 21.9048L6.95199 24.9221C7.14354 25.0585 7.40741 25.0109 7.5413 24.8158C7.59097 24.7435 7.61763 24.6574 7.61769 24.5691V23.2759H12.2729C14.8427 23.2729 16.9252 21.1518 16.9282 18.5345V12.4999C16.9282 12.2618 16.7387 12.0688 16.505 12.0688Z" fill="#222222"></path><path d="M13.1194 13.3618C12.8857 13.3618 12.6962 13.5548 12.6962 13.7929V14.6549C12.6962 14.893 12.8857 15.086 13.1194 15.086C13.3531 15.086 13.5426 14.893 13.5426 14.6549V13.7929C13.5426 13.5548 13.3531 13.3618 13.1194 13.3618Z" fill="#222222"></path><path d="M16.505 9.48242C16.2712 9.48242 16.0818 9.67542 16.0818 9.91346V10.7755C16.0818 11.0136 16.2712 11.2066 16.505 11.2066C16.7387 11.2066 16.9282 11.0136 16.9282 10.7755V9.91346C16.9282 9.67542 16.7387 9.48242 16.505 9.48242Z" fill="#222222"></path><path d="M14.8122 11.2065C14.5785 11.2065 14.389 11.3995 14.389 11.6376V15.0859C14.389 15.324 14.5785 15.517 14.8122 15.517C15.0459 15.517 15.2354 15.324 15.2354 15.0859V11.6376C15.2354 11.3995 15.0459 11.2065 14.8122 11.2065Z" fill="#222222"></path></svg>