<svg xmlns="http://www.w3.org/2000/svg" width="25" height="23" viewBox="0 0 25 23" fill="none"><path d="M22.3637 0H6.19781C4.79484 0 3.65341 1.13076 3.65341 2.51613L3.54923 16.751H0.394381C0.1708 16.751 0 16.9487 0 17.1723V19.1313C0 20.9653 1.46761 22.4651 3.23887 22.5473V22.5709H16.8522V22.5444C16.9534 22.5485 17.0147 22.5709 17.0843 22.5709H17.094C18.9831 22.5598 20.5058 21.02 20.4959 19.1309V6.68016H24.6056C24.8292 6.68016 25 6.47774 25 6.25435V2.65985C25.0026 1.19896 23.8246 0.0104773 22.3637 0V0ZM3.41599 21.7611H3.41322C1.97309 21.7611 0.809716 20.5709 0.809716 19.1309V17.5607H13.664V19.1242C13.6608 20.0356 14.0208 20.9105 14.6642 21.5557C14.7326 21.6245 14.8042 21.6599 14.8774 21.7611H3.41599ZM19.6862 19.1306C19.6862 20.5709 18.5341 21.7611 17.0934 21.7611H17.0851C15.6373 21.7507 14.4703 20.5723 14.4737 19.1244V17.1723C14.4749 16.9455 14.2956 16.7589 14.0688 16.751H4.35895L4.46313 2.5189C4.46313 1.57733 5.24121 0.809717 6.19781 0.809717H20.4523C19.9909 1.31579 19.6862 1.95609 19.6862 2.67072V19.1306ZM24.1903 2.66697V5.87045H20.4959V2.66993C20.4959 1.6566 21.3389 0.809717 22.3518 0.809717H22.3631C23.3786 0.819799 24.195 1.6483 24.1903 2.664V2.66697Z" fill="#222222"></path><path d="M9.50691 9.96547L11.5943 11.3926C11.7305 11.4865 11.9106 11.4865 12.0468 11.3926L14.1278 9.96587C14.8507 9.47264 15.3847 8.44152 15.3847 7.56716V4.67977C15.389 4.52716 15.3048 4.38562 15.1688 4.31623L11.9906 2.75294C11.8791 2.69759 11.7483 2.69759 11.6368 2.75294L8.46452 4.31188C8.32851 4.38127 8.24449 4.52281 8.24904 4.67542V7.56716C8.24904 8.44152 8.78417 9.47264 9.50691 9.96547ZM9.05876 4.92807L11.8169 3.5672L14.575 4.93182V7.56716C14.575 8.17702 14.1752 8.95273 13.6709 9.2965L11.8121 10.5678L9.96059 9.2967C9.4563 8.95253 9.05876 8.17702 9.05876 7.56716V4.92807Z" fill="#222222"></path><path d="M11.1321 8.17867C11.2076 8.25576 11.3108 8.29945 11.4187 8.30004H11.4197C11.5272 8.29965 11.6302 8.25655 11.7059 8.18025L13.3165 6.56912C13.4748 6.41097 13.4748 6.15437 13.3167 5.99623C13.1587 5.83788 12.9021 5.83788 12.744 5.99603L11.4211 7.31874L10.8923 6.78479C10.7347 6.62585 10.4783 6.62467 10.3194 6.78222C10.1604 6.93977 10.1595 7.19617 10.3168 7.35511L11.1321 8.17867Z" fill="#222222"></path><path d="M16.8522 12.551H7.1356C6.91202 12.551 6.73074 12.7323 6.73074 12.9559C6.73074 13.1795 6.91202 13.3607 7.1356 13.3607H16.8522C17.0758 13.3607 17.2571 13.1795 17.2571 12.9559C17.2571 12.7323 17.0758 12.551 16.8522 12.551Z" fill="#222222"></path><path d="M16.8522 14.4233H7.1356C6.91202 14.4233 6.73074 14.6046 6.73074 14.8282C6.73074 15.0518 6.91202 15.2331 7.1356 15.2331H16.8522C17.0758 15.2331 17.2571 15.0518 17.2571 14.8282C17.2571 14.6046 17.0758 14.4233 16.8522 14.4233Z" fill="#222222"></path></svg>