<svg xmlns="http://www.w3.org/2000/svg" width="25" height="25" viewBox="0 0 25 25" fill="none"><path d="M13.1181 11.8827C12.9272 11.6918 12.6181 11.6918 12.4272 11.8827C12.2368 12.0731 12.2368 12.3822 12.4272 12.5731C12.6181 12.7636 12.9272 12.7636 13.1181 12.5731C13.3085 12.3822 13.3085 12.0731 13.1181 11.8827Z" fill="#222222"></path><path d="M19.3325 5.66722C18.3784 4.71316 16.8339 4.71312 15.8797 5.66722C14.9281 6.61883 14.9281 8.16766 15.8799 9.12006C16.8318 10.0714 18.3807 10.0718 19.3325 9.11996C20.2865 8.16596 20.2867 6.62137 19.3325 5.66722ZM18.642 8.42938C18.071 9.00038 17.1416 9.00038 16.5704 8.42948C15.9994 7.85809 15.9993 6.9287 16.5703 6.35775C17.1427 5.78534 18.0695 5.78524 18.642 6.35775C19.2144 6.93011 19.2145 7.85692 18.642 8.42938Z" fill="#222222"></path><path d="M24.8568 0.143023C24.7609 0.0471729 24.6301 -0.00478038 24.494 0.000346583C24.3836 0.00430167 21.755 0.109966 18.6302 1.21441C16.1263 2.0985 14.0392 3.36427 12.427 4.97658C12.0657 5.33786 11.7141 5.72096 11.3777 6.11896C9.78361 5.18058 8.50616 5.47482 7.69859 5.907C5.83916 6.90212 4.68823 9.60408 4.68823 11.5367C4.68838 11.7342 4.80737 11.9122 4.9898 11.9878C5.0502 12.0128 5.11367 12.025 5.17656 12.025C5.30366 12.025 5.42852 11.9753 5.52193 11.882C6.50254 10.9013 7.71207 10.9627 8.10719 11.0146L8.27818 11.1856C7.94166 11.9864 7.67056 12.7827 7.47174 13.5572C7.39996 13.8374 7.42418 14.134 7.53087 14.4053C7.06075 14.622 6.60718 14.9401 6.21226 15.335C4.95537 16.5919 4.70015 19.6551 4.68989 19.7849C4.67866 19.9273 4.73032 20.0676 4.83135 20.1686C4.92329 20.2605 5.04766 20.3116 5.17656 20.3116C5.18936 20.3116 5.2022 20.3111 5.21504 20.3101C5.34483 20.2999 8.40811 20.0447 9.665 18.7878C10.0598 18.393 10.3778 17.9395 10.5945 17.4695C10.8817 17.5824 11.1773 17.5963 11.4431 17.5282C12.2173 17.3294 13.0134 17.0584 13.8143 16.7219L13.9853 16.8929C14.0372 17.288 14.0986 18.4976 13.118 19.4781C12.9784 19.6177 12.9366 19.8277 13.0122 20.0102C13.0877 20.1926 13.2657 20.3116 13.4633 20.3116C15.3959 20.3116 18.0978 19.1606 19.0929 17.3012C19.5251 16.4937 19.8193 15.2163 18.8809 13.6221C19.2787 13.2859 19.6619 12.9343 20.0233 12.5729C21.6356 10.9606 22.9014 8.87351 23.7854 6.36979C24.8899 3.24488 24.9956 0.616168 24.9995 0.505816C25.0044 0.370318 24.9527 0.238921 24.8568 0.143023ZM5.77993 10.4865C6.08326 9.01853 6.96426 7.40774 8.15958 6.76799C8.95836 6.34055 9.83146 6.38244 10.7598 6.8906C9.96891 7.93074 9.28136 9.05134 8.70826 10.2347C8.70099 10.2302 8.61309 10.1197 8.44981 10.0829C8.38267 10.0677 7.09073 9.78982 5.77993 10.4865ZM8.97447 18.0972C8.30308 18.7686 6.72813 19.1227 5.73267 19.2673C5.8773 18.2718 6.23145 16.6969 6.90279 16.0255C7.27877 15.6496 7.7147 15.3645 8.15289 15.2039L9.79606 16.8471C9.63551 17.2853 9.3505 17.7212 8.97447 18.0972ZM11.2006 16.5822C11.0592 16.6184 10.8956 16.5653 10.7739 16.4438C10.1422 15.8121 9.89508 15.565 9.81754 15.4875C9.67535 15.3453 9.32667 14.9966 8.5565 14.2264C8.43473 14.1044 8.3816 13.9408 8.41768 13.7997C8.57408 13.1906 8.77862 12.5657 9.02735 11.9348L13.0652 15.9726C12.4342 16.2214 11.8094 16.4259 11.2006 16.5822ZM18.232 16.8404C17.5923 18.0357 15.9815 18.9167 14.5136 19.22C14.9817 18.3393 15.0848 17.2182 14.9138 16.5383C14.8741 16.3804 14.7711 16.301 14.7654 16.2917C15.9486 15.7186 17.0692 15.031 18.1094 14.2402C18.6176 15.1686 18.6594 16.0418 18.232 16.8404ZM19.3329 11.8824C18.8929 12.3223 18.4191 12.7473 17.9247 13.1456C16.7361 14.1027 15.4279 14.9133 14.0322 15.5586L9.44137 10.9679C10.0867 9.5721 10.8973 8.26389 11.8543 7.07546C12.2529 6.58068 12.6779 6.10685 13.1177 5.66711C14.5642 4.22052 16.4311 3.06925 18.668 2.24054L22.7595 6.33195C21.9308 8.56882 20.7796 10.4357 19.3329 11.8824ZM23.1108 5.30212L19.6979 1.88922C21.5573 1.31168 23.1749 1.09542 23.9824 1.01768C23.9046 1.82525 23.6883 3.44288 23.1108 5.30212Z" fill="#222222"></path><path d="M11.737 20.1686C11.5462 19.9779 11.237 19.978 11.0464 20.1687L9.66555 21.55C9.47493 21.7408 9.47498 22.0499 9.66565 22.2406C9.85642 22.4312 10.1656 22.4312 10.3562 22.2405L11.7371 20.8591C11.9277 20.6684 11.9277 20.3592 11.737 20.1686Z" fill="#222222"></path><path d="M4.8316 13.2629C4.64097 13.0722 4.33184 13.0722 4.14107 13.2628L2.75972 14.6437C2.56899 14.8343 2.56895 15.1435 2.75957 15.3342C2.95015 15.5248 3.25928 15.525 3.4501 15.3343L4.83145 13.9535C5.02217 13.7628 5.02222 13.4537 4.8316 13.2629Z" fill="#222222"></path><path d="M8.2843 20.8593C8.09372 20.6686 7.78449 20.6686 7.59377 20.8593L4.28615 24.1664C4.09542 24.3571 4.09542 24.6663 4.2861 24.8569C4.47667 25.0476 4.7859 25.0477 4.97663 24.857L8.28425 21.5498C8.47497 21.3592 8.47497 21.05 8.2843 20.8593Z" fill="#222222"></path><path d="M4.37796 20.8593C4.18733 20.6686 3.8781 20.6686 3.68743 20.8593L0.379804 24.1664C0.189081 24.3571 0.189081 24.6663 0.379755 24.8569C0.570332 25.0476 0.879561 25.0477 1.07028 24.857L4.37791 21.5498C4.56863 21.3592 4.56863 21.05 4.37796 20.8593Z" fill="#222222"></path><path d="M4.14067 16.7157C3.95004 16.5251 3.64081 16.5251 3.45014 16.7158L0.143 20.0234C-0.0476747 20.2141 -0.0476747 20.5232 0.143048 20.714C0.333723 20.9046 0.642903 20.9046 0.833577 20.7139L4.14071 17.4063C4.33139 17.2156 4.33139 16.9064 4.14067 16.7157Z" fill="#222222"></path><path d="M15.1896 9.81073C14.9988 9.62006 14.6898 9.62006 14.499 9.81073L13.8086 10.5012C13.6179 10.6918 13.6179 11.001 13.8086 11.1917C13.9993 11.3824 14.3084 11.3824 14.4991 11.1917L15.1896 10.5013C15.3802 10.3106 15.3802 10.0015 15.1896 9.81073Z" fill="#222222"></path></svg>